<svg version="1.1" viewBox="0.0 0.0 500.0 500.0" fill="none" stroke="none" stroke-linecap="square" stroke-miterlimit="10" xmlns:xlink="http://www.w3.org/1999/xlink" xmlns="http://www.w3.org/2000/svg"><clipPath id="p.0"><path d="m0 0l500.0 0l0 500.0l-500.0 0l0 -500.0z" clip-rule="nonzero"/></clipPath><g clip-path="url(#p.0)"><path fill="#000000" fill-opacity="0.0" d="m0 0l500.0 0l0 500.0l-500.0 0z" fill-rule="evenodd"/><path fill="#b25334" d="m73.33184 475.55807l17.972542 -88.86127c-81.49774 -70.64157 -87.551445 -183.22238 -13.98555 -260.08948c73.56589 -76.867096 202.67558 -92.86429 298.27527 -36.957474c95.5997 55.906807 126.40262 165.42108 71.162384 253.00504c-55.240265 87.583954 -178.44528 124.5741 -284.63406 85.45639z" fill-rule="evenodd"/><path stroke="#20252d" stroke-width="1.8687664041994752" stroke-linejoin="round" stroke-linecap="butt" d="m73.33184 475.55807l17.972542 -88.86127c-81.49774 -70.64157 -87.551445 -183.22238 -13.98555 -260.08948c73.56589 -76.867096 202.67558 -92.86429 298.27527 -36.957474c95.5997 55.906807 126.40262 165.42108 71.162384 253.00504c-55.240265 87.583954 -178.44528 124.5741 -284.63406 85.45639z" fill-rule="evenodd"/><path fill="#f3f1ec" d="m186.07509 232.15938q-6.234375 0 -6.234375 -5.359375q0 -1.765625 0.515625 -4.03125q0.53125 -2.28125 1.484375 -5.890625q1.125 -3.765625 1.671875 -6.390625q0.5625 -2.640625 0.5625 -4.734375q0 -5.4375 -4.796875 -5.4375q-1.28125 0 -2.640625 0.328125l-6.390625 30.15625l-11.53125 0l10.890625 -50.875l11.828125 -1.609375l-3.921875 18.484375l0.640625 0q3.125 0 5.765625 -2.15625q2.640625 -2.15625 4.109375 -5.390625q1.484375 -3.25 1.484375 -6.375q0 -3.671875 -2.203125 -6.03125q-2.1875 -2.359375 -6.59375 -2.359375q-6.46875 0 -11.359375 2.3125q-4.875 2.3125 -7.5625 6.71875q-2.671875 4.40625 -2.671875 10.40625q0 2.953125 0.5625 4.125q0.5625 1.15625 0.5625 1.3125q-4.328125 0 -6.453125 -1.796875q-2.109375 -1.8125 -2.109375 -5.96875q0 -5.109375 4.1875 -9.953125q4.203125 -4.84375 10.765625 -7.84375q6.5625 -3.0 13.125 -3.0q6.0 0 10.078125 1.765625q4.078125 1.75 6.078125 4.671875q2.0 2.921875 2.0 6.359375q0 3.765625 -2.328125 7.53125q-2.3125 3.75 -6.3125 6.15625q3.046875 0.875 4.28125 2.921875q1.234375 2.03125 1.234375 5.078125q0 2.3125 -0.5625 4.921875q-0.546875 2.59375 -1.59375 6.4375q-0.640625 2.46875 -1.203125 4.875q-0.546875 2.40625 -0.546875 4.0q0 1.84375 0.828125 3.28125q0.84375 1.4375 2.28125 2.0q-4.875 1.359375 -7.921875 1.359375zm24.642456 -0.875q-5.921875 0 -9.203125 -3.078125q-3.28125 -3.09375 -3.28125 -9.640625q0 -5.53125 2.15625 -12.171875q2.171875 -6.640625 7.046875 -11.46875q4.890625 -4.84375 12.40625 -4.84375q8.796875 0 8.796875 7.671875q0 4.484375 -2.5625 8.25q-2.5625 3.75 -6.796875 6.03125q-4.234375 2.28125 -9.046875 2.609375q-0.15625 2.390625 -0.15625 3.203125q0 3.90625 1.359375 5.3125q1.359375 1.40625 4.40625 1.40625q4.3125 0 7.390625 -2.0q3.09375 -2.0 6.765625 -6.078125l2.71875 0q-8.875 14.796875 -22.0 14.796875zm0.15625 -20.484375q2.96875 -0.15625 5.640625 -2.078125q2.6875 -1.921875 4.328125 -4.875q1.640625 -2.96875 1.640625 -6.25q0 -3.28125 -2.0 -3.28125q-2.890625 0 -5.65625 5.046875q-2.75 5.03125 -3.953125 11.4375zm30.56372 20.484375q-5.921875 0 -9.203125 -3.078125q-3.28125 -3.09375 -3.28125 -9.640625q0 -5.53125 2.203125 -12.171875q2.203125 -6.640625 7.046875 -11.46875q4.84375 -4.84375 12.28125 -4.84375q4.796875 0 6.8281403 2.078125q2.046875 2.078125 2.046875 5.28125q0 2.796875 -1.203125 4.328125q-1.203125 1.515625 -3.0312653 1.515625q-1.359375 0 -2.8125 -0.96875q0.96875 -2.640625 0.96875 -4.71875q0 -1.515625 -0.5625 -2.390625q-0.5625 -0.890625 -1.671875 -0.890625q-2.40625 0 -4.8125 3.921875q-2.390625 3.921875 -3.921875 9.53125q-1.515625 5.59375 -1.515625 10.078125q0 3.90625 1.359375 5.3125q1.359375 1.40625 4.40625 1.40625q4.3125 0 7.390625 -2.0q3.0937653 -2.0 6.7656403 -6.078125l2.71875 0q-8.875015 14.796875 -22.000015 14.796875zm32.64186 -44.796875q-2.640625 0 -4.484375 -1.84375q-1.828125 -1.84375 -1.828125 -4.484375q0 -2.640625 1.828125 -4.515625q1.84375 -1.890625 4.484375 -1.890625q2.640625 0 4.515625 1.890625q1.890625 1.875 1.890625 4.515625q0 2.640625 -1.890625 4.484375q-1.875 1.84375 -4.515625 1.84375zm-5.4375 44.796875q-3.84375 0 -6.203125 -2.390625q-2.359375 -2.40625 -2.359375 -7.21875q0 -2.0 0.640625 -5.1875l5.4375 -25.6875l11.515625 0l-5.75 27.203125q-0.328125 1.203125 -0.328125 2.5625q0 1.59375 0.765625 2.28125q0.765625 0.671875 2.515625 0.671875q2.328125 0 4.328125 -1.953125q2.0 -1.96875 2.875 -5.078125l3.359375 0q-2.953125 8.625 -7.59375 11.71875q-4.640625 3.078125 -9.203125 3.078125zm19.516235 -43.4375l11.515625 0l-1.28125 6.0q4.0 -3.453125 9.375 -3.453125q4.46875 0 7.109375 2.96875q2.640625 2.953125 2.640625 9.671875q0 6.328125 -1.84375 12.765625q-1.828125 6.4375 -6.234375 10.96875q-4.40625 4.515625 -11.59375 4.515625q-5.125 0 -6.8125 -2.890625l-4.15625 19.53125l-12.078125 2.875l13.359375 -62.953125zm7.203125 36.46875q3.84375 0 6.359375 -3.59375q2.515625 -3.609375 3.671875 -8.609375q1.171875 -5.0 1.171875 -9.3125q0 -6.640625 -4.0 -6.640625q-1.4375 0 -2.921875 1.046875q-1.484375 1.03125 -2.609375 2.875l-4.71875 22.40625q0.640625 1.828125 3.046875 1.828125zm35.439972 6.96875q-5.84375 0 -9.125 -3.078125q-3.28125 -3.09375 -3.28125 -9.640625q0 -5.53125 2.15625 -12.171875q2.171875 -6.640625 7.046875 -11.46875q4.875 -4.84375 12.40625 -4.84375q8.7968445 0 8.7968445 7.671875q0 4.484375 -2.5624695 8.25q-2.5625 3.75 -6.796875 6.03125q-4.234375 2.28125 -9.046875 2.609375q-0.15625 1.75 -0.15625 2.390625q0 6.640625 4.96875 6.640625q2.234375 0 4.796875 -1.1875q2.5625 -1.203125 4.640625 -3.046875q-2.171875 11.84375 -13.84375 11.84375zm0.15625 -20.484375q3.046875 -0.078125 5.71875 -2.0q2.6875 -1.921875 4.328125 -4.921875q1.640625 -3.0 1.640625 -6.28125q0 -3.28125 -2.0 -3.28125q-2.8125 0 -5.578125 5.09375q-2.75 5.078125 -4.109375 11.390625z" fill-rule="nonzero"/><path fill="#f3f1ec" d="m167.83385 272.39374q-5.359375 2.25 -8.28125 6.734375q-2.90625 4.46875 -2.90625 10.796875q0 2.953125 0.546875 4.125q0.5625 1.15625 0.5625 1.3125q-4.3125 0 -6.4375 -1.796875q-2.125 -1.8125 -2.125 -5.96875q0 -5.109375 4.203125 -9.953125q4.203125 -4.84375 10.765625 -7.84375q6.5625 -3.0 13.125 -3.0q1.109375 0 3.1875 0.15625l-5.109375 23.84375l11.75 0l5.125 -23.84375l11.515625 0l-12.71875 59.84375l-11.515625 0l6.40625 -30.078125l-11.765625 0l-6.40625 30.078125l-11.515625 0l11.59375 -54.40625zm45.0437 54.890625q-5.921875 0 -9.203125 -3.078125q-3.28125 -3.09375 -3.28125 -9.640625q0 -5.53125 2.15625 -12.171875q2.171875 -6.640625 7.046875 -11.46875q4.890625 -4.84375 12.406235 -4.84375q8.796875 0 8.796875 7.671875q0 4.484375 -2.5625 8.25q-2.5625 3.75 -6.796875 6.03125q-4.2343597 2.28125 -9.04686 2.609375q-0.15625 2.390625 -0.15625 3.203125q0 3.90625 1.359375 5.3125q1.359375 1.40625 4.40625 1.40625q4.3124847 0 7.3906097 -2.0q3.09375 -2.0 6.765625 -6.078125l2.71875 0q-8.875 14.796875 -21.999985 14.796875zm0.15625 -20.484375q2.96875 -0.15625 5.640625 -2.078125q2.6874847 -1.921875 4.3281097 -4.875q1.640625 -2.96875 1.640625 -6.25q0 -3.28125 -2.0 -3.28125q-2.890625 0 -5.6562347 5.046875q-2.75 5.03125 -3.953125 11.4375zm27.04808 20.484375q-3.84375 0 -6.203125 -2.390625q-2.359375 -2.40625 -2.359375 -7.21875q0 -2.0 0.640625 -5.1875l8.5625 -40.09375l11.84375 -1.59375l-9.203125 43.203125q-0.328125 1.203125 -0.328125 2.5625q0 1.59375 0.765625 2.28125q0.765625 0.671875 2.515625 0.671875q2.328125 0 4.328125 -1.953125q2.0 -1.96875 2.875 -5.078125l3.359375 0q-2.953125 8.625 -7.59375 11.71875q-4.640625 3.078125 -9.203125 3.078125zm19.516235 -43.4375l11.515625 0l-1.28125 6.0q4.0 -3.453125 9.375 -3.453125q4.46875 0 7.109375 2.96875q2.640625 2.953125 2.640625 9.671875q0 6.328125 -1.84375 12.765625q-1.828125 6.4375 -6.234375 10.96875q-4.40625 4.515625 -11.59375 4.515625q-5.125 0 -6.8125 -2.890625l-4.15625 19.53125l-12.078125 2.875l13.359375 -62.953125zm7.203125 36.46875q3.84375 0 6.359375 -3.59375q2.515625 -3.609375 3.671875 -8.609375q1.171875 -5.0 1.171875 -9.3125q0 -6.640625 -4.0 -6.640625q-1.4375 0 -2.921875 1.046875q-1.484375 1.03125 -2.609375 2.875l-4.71875 22.40625q0.640625 1.828125 3.046875 1.828125zm35.596222 6.96875q-5.921875 0 -9.203125 -3.078125q-3.28125 -3.09375 -3.28125 -9.640625q0 -5.53125 2.15625 -12.171875q2.171875 -6.640625 7.046875 -11.46875q4.890625 -4.84375 12.40625 -4.84375q8.796875 0 8.796875 7.671875q0 4.484375 -2.5625 8.25q-2.5625 3.75 -6.796875 6.03125q-4.234375 2.28125 -9.046875 2.609375q-0.15625 2.390625 -0.15625 3.203125q0 3.90625 1.359375 5.3125q1.359375 1.40625 4.40625 1.40625q4.3125 0 7.390625 -2.0q3.09375 -2.0 6.765625 -6.078125l2.71875 0q-8.875 14.796875 -22.0 14.796875zm0.15625 -20.484375q2.96875 -0.15625 5.640625 -2.078125q2.6875 -1.921875 4.328125 -4.875q1.640625 -2.96875 1.640625 -6.25q0 -3.28125 -2.0 -3.28125q-2.890625 0 -5.65625 5.046875q-2.75 5.03125 -3.953125 11.4375zm24.56372 -20.0l11.515625 0l-1.03125 4.953125q2.71875 -2.390625 4.921875 -3.671875q2.203125 -1.28125 4.75 -1.28125q2.5625 0 4.046875 1.765625q1.484375 1.75 1.484375 4.234375q0 2.3125 -1.53125 4.078125q-1.515625 1.765625 -4.234375 1.765625q-1.765625 0 -2.359375 -0.84375q-0.59375 -0.84375 -0.921875 -2.4375q-0.234375 -1.046875 -0.484375 -1.515625q-0.234375 -0.484375 -0.875 -0.484375q-1.671875 0 -2.84375 0.6875q-1.15625 0.671875 -3.0 2.34375l-6.390625 30.40625l-11.53125 0l8.484375 -40.0z" fill-rule="nonzero"/></g></svg>